<?xml version="1.0" encoding="utf-8"?>
<!-- Generator: Adobe Illustrator 24.0.1, SVG Export Plug-In . SVG Version: 6.00 Build 0)  -->
<svg version="1.1" id="Layer_1" xmlns="http://www.w3.org/2000/svg" xmlns:xlink="http://www.w3.org/1999/xlink" x="0px" y="0px"
	 viewBox="0 0 512 512" style="enable-background:new 0 0 512 512;" xml:space="preserve">
<style type="text/css">
	.st0{fill:#FFFFFF;}
	.st1{fill:#cc3f44;}
</style>
<path id="Path_1" class="st0" d="M256,53c112.1,0,203,90.9,203,203s-90.9,203-203,203S53,368.1,53,256C53.1,143.9,143.9,53.1,256,53
	 M256,0C114.6,0,0,114.6,0,256s114.6,256,256,256s256-114.6,256-256l0,0C512,114.6,397.4,0,256,0z"/>
<path class="st0" d="M512,256c0-18.4-2-36.8-5.9-54.7h-79.7c-2-6.2-7.7-10.5-14.2-10.5h-17.3c-6.5,0-12.3,4.3-14.2,10.5h-69.9V86.7
	c-36.3-12.2-75.7-11.9-111.9,0.8v113.8h-95.5c-0.8-0.7-1.6-1.4-2.5-2c-10.3-7.1-22.7-10.6-35.2-10c-9.9-0.3-19.6,1.9-28.5,6.2
	c-3.2,1.7-6.3,3.6-9.1,5.9H5.9c-7.6,34.9-7.9,70.9-0.8,105.9h34.8c8.5,3.6,17.6,5.4,26.8,5.3c9.4,0,18.7-1.8,27.4-5.2l0.1-0.1h31.1
	c7.2,3.6,15.2,5.4,23.2,5.2c7.8,0.2,15.5-1.6,22.5-5.2h27.8v117.3c36.2,12.8,75.5,13.1,111.9,0.8v-99.7c0.9,0.9,1.9,1.8,3,2.7
	c9.6,6.8,21.3,10,33.1,9.1c6.5,0.1,12.9-0.7,19.1-2.6c5.6-1.7,10.7-4.6,14.9-8.5c4.3-4.2,7.5-9.4,9.3-15.1c0.1-0.3,0.2-0.7,0.3-1
	c1.4,0.4,2.9,0.7,4.5,0.7h17.3c3.6,0,7.2-1.3,9.9-3.7h4.6c6.2,3.5,13.3,5.3,20.4,5.2c5.4,0,10.8-1,15.9-3c2.1,1,4.3,1.6,6.6,1.6
	h17.1c3.6,0,7.2-1.3,9.9-3.7H507C510.3,290.3,512,273.2,512,256z M386.5,140.2v17.6h-2.4c-4.5-3.9-10.3-6.4-16.7-6.8
	c0.4,6.4,2.9,12.2,6.8,16.8v2.3h-17.6v-2c4-4.6,6.6-10.5,7.1-17c-6.5,0.4-12.4,2.9-17,6.8h-2.3v-17.6h2c4.7,4.1,10.7,6.7,17.3,7.1
	c-0.4-6.6-3-12.5-7.1-17.2V128h17.6v2.4c-3.9,4.6-6.4,10.5-6.8,16.9c6.5-0.4,12.3-3,16.9-7L386.5,140.2L386.5,140.2z M164.5,140.2
	v17.6h-2.4c-4.5-3.9-10.3-6.4-16.7-6.8c0.4,6.4,2.9,12.2,6.8,16.8v2.3h-17.6v-2c4-4.6,6.6-10.5,7.1-17c-6.5,0.4-12.4,2.9-17,6.8
	h-2.3v-17.6h2c4.7,4.1,10.7,6.7,17.3,7.1c-0.4-6.6-3-12.5-7.1-17.2V128h17.6v2.4c-3.9,4.6-6.4,10.5-6.8,16.9c6.5-0.4,12.3-3,16.9-7
	L164.5,140.2L164.5,140.2z M386.5,361.2v17.6h-2.4c-4.5-3.9-10.3-6.4-16.7-6.8c0.4,6.4,2.9,12.2,6.8,16.8v2.3h-17.6v-2
	c4-4.6,6.6-10.5,7.1-17c-6.5,0.4-12.4,2.9-17,6.8h-2.3v-17.6h2c4.7,4.1,10.7,6.7,17.3,7.1c-0.4-6.6-3-12.5-7.1-17.2V349h17.6v2.4
	c-3.9,4.6-6.4,10.5-6.8,16.9c6.5-0.4,12.3-3,16.9-7L386.5,361.2L386.5,361.2z M164.5,361.2v17.6h-2.4c-4.5-3.9-10.3-6.4-16.7-6.8
	c0.4,6.4,2.9,12.2,6.8,16.8v2.3h-17.6v-2c4-4.6,6.6-10.5,7.1-17c-6.5,0.4-12.4,2.9-17,6.8h-2.3v-17.6h2c4.7,4.1,10.7,6.7,17.3,7.1
	c-0.4-6.6-3-12.5-7.1-17.2V349h17.6v2.4c-3.9,4.6-6.4,10.5-6.8,16.9c6.5-0.4,12.3-3,16.9-7L164.5,361.2L164.5,361.2z"/>
<path id="Path_3" class="st1" d="M105.6,247.6v35.9c0,0.2-0.1,0.5-0.3,0.6c-4.9,4.4-10.7,7.7-17,9.9c-7.1,2.8-14.8,4.2-22.5,4.3
	c-8.8,0.2-17.6-1.9-25.3-6c-7.2-4-12.9-10.1-16.3-17.4c-3.6-7.6-5.5-16-5.4-24.4c-0.2-8.8,1.9-17.6,6.1-25.5
	c4-7.4,10.2-13.3,17.8-17.2c6.9-3.3,14.5-4.8,22.2-4.6c9.6-0.5,19,2,27,7.2c6.6,4.9,11.1,12.1,12.6,20c0.1,0.2,0,0.5-0.1,0.7
	s-0.3,0.3-0.6,0.4L85.5,235c-0.5,0.1-0.9-0.2-1-0.6c-1.1-4-3.5-7.5-6.9-10c-3.7-2.6-8.2-3.9-12.7-3.7c-7-0.3-13.7,2.4-18.5,7.3
	c-5,6.2-7.5,14-6.9,21.8c-0.6,8.4,1.8,16.7,7,23.5c4.5,5.1,11.2,8,18.2,7.7c3.9,0,7.7-0.8,11.2-2.2c3.4-1.3,6.5-3,9.4-5.1v-10.1
	H65.2c-0.5,0-0.9-0.4-0.9-0.9v-15.2c0-0.5,0.4-0.9,0.9-0.9h39.5C105.2,246.7,105.6,247.1,105.6,247.6L105.6,247.6z M170.5,238.2
	c6.4,8.7,9.4,19.4,8.3,30.1c0,0.5-0.4,0.9-0.9,0.9h-42.7c0,3.8,1.4,7.5,3.9,10.5c2.4,2.6,5.8,4.1,9.4,4c2.3,0.1,4.5-0.6,6.3-2
	c2-1.8,3.3-4.1,3.9-6.7c0.1-0.4,0.5-0.7,1-0.6l17.4,2.9c0.3,0,0.5,0.2,0.6,0.4c0.1,0.2,0.2,0.5,0.1,0.7c-1.9,5.9-5.7,11.1-10.9,14.8
	c-5.5,3.5-12,5.3-18.6,5.1c-10.2,0.7-20-3.6-26.1-11.5c-4.7-6.8-7-14.8-6.7-23c-0.5-9.4,2.6-18.7,8.8-26c5.6-6.2,13.8-9.7,22.3-9.5
	C155.7,227.9,164.5,231.6,170.5,238.2L170.5,238.2z M159.7,256.8c0-3.6-1.3-7.1-3.6-9.9c-2.1-2.4-5.2-3.7-8.4-3.6
	c-3.4-0.1-6.6,1.3-8.8,3.8c-2.3,2.7-3.5,6.2-3.4,9.7H159.7z M247.1,238.2c6.6,6.7,10.1,15.7,9.8,24.9c0.3,9.3-3.3,18.4-9.9,25.2
	c-6.5,6.6-15.5,10.2-24.9,10c-6.1,0-12.2-1.4-17.6-4.1c-5.5-2.7-10-7-12.9-12.3c-3.1-6.1-4.6-12.8-4.4-19.5c0-5.9,1.5-11.8,4.4-17.1
	c2.8-5.3,7.1-9.7,12.5-12.7c5.5-2.9,11.7-4.4,17.9-4.3C231.5,228,240.6,231.6,247.1,238.2L247.1,238.2z M232.8,249
	c-5-5.8-13.9-6.5-19.8-1.7c-0.6,0.5-1.2,1.1-1.7,1.7c-5.9,8.7-5.9,19.9,0,28.6c5,5.8,13.9,6.5,19.8,1.7c0.6-0.5,1.2-1.1,1.7-1.7
	c3.2-4.1,4.8-9.3,4.4-14.4C237.6,258.1,236,253.1,232.8,249L232.8,249z M300.1,228.3c-2.8,0-5.6,0.7-8,2.2c-2.5,1.8-4.5,4-6.1,6.5
	v-6.3c0-0.5-0.4-0.9-0.9-0.9h-16.2c-0.5,0-0.9,0.4-0.9,0.9V296c0,0.5,0.4,0.9,0.9,0.9h17.4c0.5,0,0.9-0.4,0.9-0.9v-20.2
	c-0.3-7.2,0.2-14.5,1.4-21.7c0.5-2.6,1.8-4.9,3.7-6.8c4.1-2.7,9.6-2.3,13.3,0.9c0.2,0.2,0.5,0.2,0.8,0.1c0.3-0.1,0.5-0.3,0.6-0.5
	l5.4-15.1c0.1-0.4,0-0.8-0.4-1.1C308.4,229.5,304.3,228.3,300.1,228.3L300.1,228.3z M380.3,230.6v58.6c0.2,5.9-0.4,11.8-2,17.6
	c-1.1,3.5-3,6.7-5.6,9.3c-2.7,2.4-6,4.3-9.6,5.3c-4.8,1.4-9.9,2-14.9,1.9c-8.6,0.7-17.1-1.3-24.3-5.9c-4.7-3.7-7.4-9.2-7.3-15.1
	c0-0.6,0-1.3,0.1-2.1c0-0.2,0.1-0.5,0.3-0.6c0.2-0.2,0.4-0.2,0.7-0.2l19.9,2.4c0.4,0.1,0.7,0.4,0.8,0.7c0.1,1.6,0.8,3.1,1.9,4.1
	c2.2,1.3,4.7,1.9,7.3,1.7c3.4,0.2,6.7-0.4,9.8-1.9c1.5-0.9,2.5-2.3,3.1-3.9c0.6-2.5,0.9-5,0.8-7.6v-7c-4.5,5.6-11.5,8.9-18.8,8.9
	c-8.8,0.1-17.1-4.2-21.7-11.5c-4.3-6.7-6.5-14.5-6.2-22.4c-0.6-9.2,2.3-18.4,8.2-25.7c5.1-5.8,12.6-9.1,20.5-9
	c7.5,0,14.6,3.3,19.3,9v-6.7c0-0.5,0.4-0.9,0.9-0.9h16.3C379.9,229.7,380.3,230.1,380.3,230.6L380.3,230.6L380.3,230.6z
	 M357.4,247.9c-2.4-3-6.1-4.7-10-4.6c-3.8-0.1-7.4,1.6-9.6,4.5c-2.9,4.2-4.2,9.2-3.8,14.2c-0.4,5.2,0.9,10.3,3.8,14.7
	c2.2,2.9,5.7,4.5,9.3,4.5c3.9,0,7.7-1.7,10.1-4.7c3.1-4.1,4.6-9.1,4.2-14.1C361.8,257.2,360.4,252.1,357.4,247.9L357.4,247.9z
	 M414,204.9h-17.4c-0.5,0-0.9,0.4-0.9,0.9v16c0,0.5,0.4,0.9,0.9,0.9H414c0.5,0,0.9-0.4,0.9-0.9v-16
	C414.9,205.3,414.5,204.9,414,204.9L414,204.9L414,204.9z M414,229.8h-17.4c-0.5,0-0.9,0.4-0.9,0.9V296c0,0.5,0.4,0.9,0.9,0.9H414
	c0.5,0,0.9-0.4,0.9-0.9v-65.3C414.9,230.2,414.5,229.8,414,229.8L414,229.8z M489.9,296.4c-0.2,0.3-0.5,0.4-0.8,0.4h-17.2
	c-0.4,0-0.7-0.2-0.8-0.6c-0.5-1.2-1-2.9-1.7-5.2c-0.1-0.2-0.1-0.5-0.2-0.7c-2.6,2.3-5.5,4.3-8.8,5.7c-3.5,1.5-7.3,2.2-11.2,2.2
	c-6.1,0.3-12.1-1.7-16.6-5.7c-4.1-3.8-6.3-9-6.1-14.5c-0.1-3.6,0.9-7.2,2.8-10.3c1.8-3,4.6-5.4,7.8-7c4.5-1.9,9.2-3.3,14.1-4.1
	c5.5-0.9,10.9-2.2,16.2-4v-1.1c0.3-2.3-0.5-4.7-2.2-6.4c-2.6-1.6-5.7-2.2-8.8-1.9c-2.4-0.1-4.7,0.4-6.7,1.7
	c-1.9,1.6-3.2,3.6-3.9,5.9c-0.1,0.4-0.6,0.7-1,0.6l-15.8-2.8c-0.2,0-0.5-0.2-0.6-0.4s-0.2-0.5-0.1-0.7c1.3-5.8,4.7-10.9,9.5-14.5
	c6-3.5,12.9-5.2,19.9-4.7c6.1-0.3,12.1,0.6,17.7,2.8c3.5,1.5,6.5,4.1,8.4,7.3c2,5.1,2.8,10.5,2.4,15.9l-0.2,20.2
	c-0.1,4.2,0.2,8.4,0.8,12.5c0.7,3,1.7,5.8,3.1,8.6C490,295.8,490,296.1,489.9,296.4L489.9,296.4z M457.8,268.1
	c-3.2,0.5-6.3,1.5-9.2,2.9c-1.9,1.2-3,3.2-3,5.4c0,2.1,0.9,4.2,2.5,5.6c1.7,1.6,4,2.5,6.3,2.4c3.1-0.1,6-1.1,8.4-2.9
	c1.8-1.3,3.2-3.1,3.8-5.3c0.6-2.7,0.8-5.4,0.7-8.2v-2.2C465.1,266.5,461.9,267.2,457.8,268.1L457.8,268.1z"/>
</svg>
